<?xml version="1.0" encoding="UTF-8"?>
<svg width="136px" height="45px" viewBox="0 0 136 45" version="1.1" xmlns="http://www.w3.org/2000/svg" xmlns:xlink="http://www.w3.org/1999/xlink">
    <title>Group 7</title>
    <g id="Page-1" stroke="none" stroke-width="1" fill="none" fill-rule="evenodd">
        <g id="главная" transform="translate(-144.000000, -16.000000)">
            <g id="Group-7" transform="translate(144.000000, 16.336000)">
                <path d="M51.784,4.357 C56.395,4.357 60.233,7.664 61.058,12.0355 C61.165,12.6055 61.2225,13.194 61.2225,13.7955 C61.2225,14.4145 61.1625,15.019 61.0485,15.605 L61.0485,15.605 L46.6965,15.605 C46.914,16.2175 47.239,16.779 47.6495,17.267 C48.64,18.4455 50.1235,19.195 51.784,19.195 C53.443,19.195 54.9275,18.4455 55.918,17.267 L55.918,17.267 L60.563,17.267 C59.1805,20.762 55.771,23.234 51.784,23.234 C47.797,23.234 44.388,20.762 43.004,17.267 C42.794,16.7355 42.6305,16.179 42.519,15.605 C42.405,15.019 42.345,14.4145 42.345,13.7955 C42.345,13.194 42.402,12.6055 42.5105,12.0355 C43.3345,7.664 47.173,4.357 51.784,4.357 Z M9.439,4.357 C14.0505,4.357 17.8875,7.664 18.7125,12.0355 C18.82,12.6055 18.877,13.194 18.877,13.7955 C18.877,14.4145 18.817,15.019 18.703,15.605 L18.703,15.605 L4.351,15.605 C4.569,16.2175 4.894,16.779 5.3045,17.267 C6.2945,18.4455 7.7785,19.195 9.439,19.195 C11.098,19.195 12.5825,18.4455 13.5725,17.267 L13.5725,17.267 L18.218,17.267 C16.835,20.762 13.426,23.234 9.439,23.234 C5.452,23.234 2.0425,20.762 0.659,17.267 C0.4485,16.7355 0.2855,16.179 0.1745,15.605 C0.06,15.019 -2.30926389e-14,14.4145 -2.30926389e-14,13.7955 C-2.30926389e-14,13.194 0.0565,12.6055 0.165,12.0355 C0.9895,7.664 4.828,4.357 9.439,4.357 Z M90.5235,4.357 C95.1345,4.357 98.9725,7.664 99.798,12.0355 C99.9045,12.6055 99.962,13.194 99.962,13.7955 C99.962,14.4145 99.9015,15.019 99.788,15.605 L99.788,15.605 L85.4355,15.605 C85.654,16.2175 85.979,16.779 86.3895,17.267 C87.38,18.4455 88.8635,19.195 90.5235,19.195 C92.183,19.195 93.667,18.4455 94.657,17.267 L94.657,17.267 L99.3025,17.267 C97.9205,20.762 94.51,23.234 90.5235,23.234 C86.5365,23.234 83.127,20.762 81.744,17.267 C81.5335,16.7355 81.37,16.179 81.2585,15.605 C81.1455,15.019 81.0845,14.4145 81.0845,13.7955 C81.0845,13.194 81.142,12.6055 81.25,12.0355 C82.0745,7.664 85.913,4.357 90.5235,4.357 Z M71.096,4.406 L71.096,8.217 L71.166,8.217 C71.396,7.663 71.7085,7.149 72.1015,6.675 C72.4935,6.2025 72.944,5.798 73.4525,5.463 C73.96,5.128 74.503,4.8685 75.0805,4.683 C75.6575,4.4985 76.2585,4.406 76.883,4.406 C77.205,4.406 77.564,4.4635 77.9565,4.579 L77.9565,4.579 L77.9565,9.1525 C77.725,9.107 77.448,9.066 77.1245,9.031 C76.8015,8.997 76.4885,8.979 76.19,8.979 C75.289,8.979 74.526,9.1295 73.9025,9.43 C73.279,9.7305 72.7765,10.14 72.3955,10.659 C72.0145,11.1795 71.742,11.786 71.581,12.4785 C71.42,13.172 71.339,13.923 71.339,14.73 L71.339,14.73 L71.339,23.211 L66.419,23.211 L66.419,4.406 L71.096,4.406 Z M26.7965,4.484 L30.58,17.2775 L30.65,17.2775 L34.4185,4.484 L39.3045,4.484 L33.241,23.211 L27.767,23.211 L21.6345,4.484 L26.7965,4.484 Z M112.453,4.2755 C113.424,4.2755 114.3635,4.3685 115.277,4.552 C116.1895,4.738 117.003,5.05 117.719,5.488 C118.435,5.927 119.0295,6.51 119.5045,7.2375 C119.977,7.965 120.2605,8.8835 120.3525,9.992 L120.3525,9.992 L115.675,9.992 C115.6065,9.0455 115.2475,8.4045 114.6015,8.0695 C113.955,7.735 113.192,7.567 112.3145,7.567 C112.038,7.567 111.7375,7.5845 111.4145,7.6195 C111.09,7.6535 110.7965,7.729 110.5305,7.8445 C110.264,7.96 110.0395,8.1275 109.855,8.3465 C109.6695,8.566 109.577,8.861 109.577,9.2305 C109.577,9.6695 109.739,10.027 110.063,10.304 C110.3855,10.5805 110.808,10.8065 111.3275,10.9795 C111.847,11.153 112.4415,11.3085 113.1115,11.447 C113.781,11.586 114.463,11.737 115.1555,11.898 C115.871,12.06 116.571,12.2565 117.252,12.487 C117.933,12.7175 118.5395,13.024 119.071,13.4045 C119.602,13.7865 120.029,14.2595 120.3525,14.825 C120.6755,15.391 120.8385,16.09 120.8385,16.9215 C120.8385,18.099 120.6005,19.0875 120.128,19.884 C119.6545,20.6815 119.036,21.322 118.274,21.807 C117.512,22.292 116.6395,22.6335 115.658,22.8285 C114.676,23.0245 113.6765,23.1235 112.6615,23.1235 C111.622,23.1235 110.605,23.019 109.6125,22.812 C108.619,22.604 107.7355,22.257 106.9615,21.772 C106.1885,21.287 105.5525,20.6465 105.056,19.8495 C104.5595,19.0525 104.288,18.053 104.242,16.852 L104.242,16.852 L108.9195,16.852 C108.9195,17.3835 109.029,17.8395 109.2485,18.2205 C109.4675,18.6025 109.7505,18.914 110.0975,19.156 C110.444,19.3985 110.842,19.5775 111.293,19.693 C111.7425,19.809 112.211,19.8665 112.696,19.8665 C113.0425,19.8665 113.406,19.827 113.7875,19.745 C114.1685,19.6645 114.515,19.5375 114.827,19.3645 C115.1385,19.191 115.3985,18.96 115.6065,18.6715 C115.814,18.3825 115.9185,18.0185 115.9185,17.58 C115.9185,16.8405 115.427,16.2865 114.4455,15.917 C113.464,15.5475 112.095,15.178 110.3405,14.808 C109.6235,14.647 108.9245,14.4565 108.2435,14.2365 C107.562,14.017 106.956,13.729 106.425,13.3695 C105.8935,13.0125 105.466,12.5625 105.143,12.019 C104.8195,11.4765 104.658,10.812 104.658,10.027 C104.658,8.8725 104.883,7.925 105.334,7.186 C105.784,6.4475 106.3785,5.8635 107.118,5.436 C107.857,5.009 108.689,4.7085 109.6125,4.535 C110.536,4.362 111.4835,4.2755 112.453,4.2755 Z M131.8115,0.843 L131.8115,4.406 L135.4145,4.406 L135.4145,7.697 L131.8115,7.697 L131.8115,17.199 C131.8115,18.03 131.95,18.5845 132.2265,18.862 C132.504,19.1385 133.0585,19.278 133.89,19.278 C134.167,19.278 134.4325,19.2665 134.6875,19.243 C134.941,19.2205 135.183,19.1855 135.4145,19.1385 L135.4145,19.1385 L135.4145,22.9505 C134.9985,23.02 134.5365,23.0655 134.029,23.0895 C133.52,23.112 133.024,23.1235 132.5385,23.1235 C131.777,23.1235 131.054,23.0715 130.373,22.9675 C129.6915,22.864 129.0915,22.662 128.5715,22.3615 C128.0515,22.0615 127.6415,21.634 127.342,21.0795 C127.041,20.525 126.8915,19.7975 126.8915,18.8965 L126.8915,18.8965 L126.8915,7.697 L123.911,7.697 L123.911,4.406 L126.8915,4.406 L126.8915,0.843 L131.8115,0.843 Z M51.784,8.3965 C49.4185,8.3965 47.41,9.9175 46.68,12.0355 L46.68,12.0355 L56.8875,12.0355 C56.1575,9.9175 54.149,8.3965 51.784,8.3965 Z M9.439,8.3965 C7.073,8.3965 5.0645,9.9175 4.3345,12.0355 L4.3345,12.0355 L14.5425,12.0355 C13.8125,9.9175 11.804,8.3965 9.439,8.3965 Z M90.5235,8.3965 C88.158,8.3965 86.1495,9.9175 85.419,12.0355 L85.419,12.0355 L95.627,12.0355 C94.898,9.9175 92.889,8.3965 90.5235,8.3965 Z M134.6125,-6.88338275e-15 C134.7945,-6.88338275e-15 134.9685,0.0315 135.136,0.095 C135.3025,0.1585 135.4495,0.2485 135.5765,0.3645 C135.704,0.4815 135.805,0.6225 135.8805,0.7875 C135.9565,0.9535 135.9935,1.1385 135.9935,1.342 C135.9935,1.5485 135.9565,1.735 135.8805,1.9 C135.805,2.0655 135.704,2.2065 135.5765,2.325 C135.4495,2.4425 135.3025,2.5325 135.136,2.5945 C134.9685,2.6565 134.7945,2.688 134.6125,2.688 C134.429,2.688 134.255,2.6565 134.088,2.5945 C133.921,2.5325 133.7745,2.4425 133.6475,2.325 C133.52,2.2065 133.419,2.0655 133.343,1.9 C133.2675,1.735 133.23,1.5485 133.23,1.342 C133.23,1.1385 133.2675,0.9535 133.343,0.7875 C133.419,0.6225 133.52,0.4815 133.6475,0.3645 C133.7745,0.2485 133.921,0.1585 134.088,0.095 C134.255,0.0315 134.429,-6.88338275e-15 134.6125,-6.88338275e-15 Z M134.6125,0.2875 C134.47,0.2875 134.3385,0.3145 134.2145,0.367 C134.0905,0.4195 133.9835,0.4925 133.8915,0.586 C133.8015,0.6795 133.7295,0.791 133.6765,0.9185 C133.6235,1.048 133.597,1.1885 133.597,1.342 C133.597,1.496 133.6235,1.637 133.6765,1.767 C133.7295,1.896 133.8015,2.0085 133.8915,2.1035 C133.9835,2.1975 134.0905,2.2725 134.2145,2.325 C134.3385,2.3775 134.47,2.4035 134.6125,2.4035 C134.751,2.4035 134.883,2.3775 135.0065,2.325 C135.13,2.2725 135.2375,2.1975 135.3285,2.1035 C135.4195,2.0085 135.4915,1.896 135.546,1.767 C135.5995,1.637 135.6265,1.496 135.6265,1.342 C135.6265,1.1885 135.5995,1.048 135.546,0.9185 C135.4915,0.791 135.4195,0.6795 135.3285,0.586 C135.2375,0.4925 135.13,0.4195 135.0065,0.367 C134.883,0.3145 134.751,0.2875 134.6125,0.2875 Z M134.6445,0.586 C134.8335,0.586 134.9795,0.6205 135.082,0.687 C135.184,0.754 135.2345,0.8695 135.2345,1.032 C135.2345,1.1025 135.224,1.162 135.2035,1.2105 C135.184,1.2595 135.1555,1.2995 135.1195,1.331 C135.0835,1.3625 135.042,1.3865 134.994,1.403 C134.946,1.42 134.8935,1.431 134.839,1.4355 L134.839,1.4355 L135.242,2.094 L134.929,2.094 L134.562,1.45 L134.374,1.45 L134.374,2.094 L134.076,2.094 L134.076,0.586 Z M134.6265,0.8205 L134.374,0.8205 L134.374,1.2165 L134.641,1.2165 C134.727,1.2165 134.7975,1.204 134.8535,1.18 C134.9085,1.1565 134.936,1.0985 134.936,1.0075 C134.936,0.9665 134.926,0.9345 134.907,0.9105 C134.8875,0.8865 134.8625,0.8675 134.833,0.8545 C134.8025,0.841 134.7695,0.8325 134.7325,0.828 C134.696,0.823 134.66,0.8205 134.6265,0.8205 L134.6265,0.8205 Z" id="лого" fill="#BD243A"></path>
                <path d="M102.3125,34.6665 L102.6785,35.3365 L101.795,35.8285 C102.0855,36.1825 102.237,36.6115 102.237,37.1545 C102.237,38.455 101.2895,39.289 100.077,39.289 C99.6225,39.289 99.231,39.1875 98.89,38.9865 C98.4985,39.15 98.3725,39.39 98.3725,39.6935 C98.3725,40.1485 98.751,40.3 99.155,40.3 L100.7975,40.3 C101.896,40.3 102.704,40.792 102.704,41.966 C102.704,43.545 101.5675,44.164 100.0895,44.164 C98.4605,44.164 97.463,43.3815 97.463,42.068 C97.463,41.4485 97.7655,40.9945 98.1195,40.7285 C97.8035,40.539 97.614,40.211 97.614,39.6935 C97.614,39.15 97.955,38.7585 98.397,38.5565 C98.1065,38.2035 97.917,37.7105 97.917,37.1545 C97.917,35.8665 98.8645,35.0205 100.077,35.0205 C100.481,35.0205 100.86,35.1215 101.1755,35.311 L102.3125,34.6665 Z M98.789,40.9435 C98.3465,41.234 98.221,41.6505 98.221,42.093 C98.221,42.9135 98.8265,43.457 100.0895,43.457 C101.3525,43.457 101.946,42.8625 101.946,42.068 C101.946,41.259 101.4665,40.9815 100.708,40.9815 L99.4075,40.9815 C99.1805,40.9815 98.978,40.9685 98.789,40.9435 Z M126.0425,35.0205 C127.9115,35.0205 129.0235,36.637 129.0235,38.3035 C129.0235,39.971 127.9115,41.588 126.0425,41.588 C124.174,41.588 123.062,39.971 123.062,38.3035 C123.062,36.637 124.174,35.0205 126.0425,35.0205 Z M113.082,35.0205 C114.3325,35.0205 115.3305,35.8285 115.3305,37.2685 L115.3305,41.487 L114.7365,41.487 L114.5475,40.5015 C114.194,41.12 113.55,41.588 112.5395,41.588 C111.479,41.588 110.557,41.057 110.557,39.655 C110.557,38.241 111.706,37.571 113.4865,37.571 L114.5475,37.571 L114.5475,37.294 C114.5475,36.1825 113.9415,35.753 113.082,35.753 C112.2115,35.753 111.7565,36.2965 111.567,36.94 L110.8085,36.763 C110.9735,35.69 111.933,35.0205 113.082,35.0205 Z M119.351,32.5455 L119.351,35.1215 L121.069,35.1215 L121.069,35.8545 L119.351,35.8545 L119.351,39.8065 C119.351,40.527 119.717,40.8555 120.26,40.8555 C120.513,40.8555 120.816,40.804 121.056,40.653 L121.2705,41.361 C120.967,41.5245 120.5505,41.588 120.159,41.588 C119.2375,41.588 118.5685,41.032 118.5685,39.6805 L118.5685,35.8545 L117.444,35.8545 L117.444,35.1215 L118.5685,35.1215 L118.5685,33.0635 L119.351,32.5455 Z M23.2525,35.0205 C25.1215,35.0205 26.2325,36.637 26.2325,38.3035 C26.2325,39.971 25.1215,41.588 23.2525,41.588 C21.383,41.588 20.272,39.971 20.272,38.3035 C20.272,36.637 21.383,35.0205 23.2525,35.0205 Z M43.7105,32.5455 L43.7105,35.1215 L45.428,35.1215 L45.428,35.8545 L43.7105,35.8545 L43.7105,39.8065 C43.7105,40.527 44.077,40.8555 44.62,40.8555 C44.8725,40.8555 45.1755,40.804 45.416,40.653 L45.63,41.361 C45.327,41.5245 44.9105,41.588 44.5185,41.588 C43.597,41.588 42.9275,41.032 42.9275,39.6805 L42.9275,35.8545 L41.8035,35.8545 L41.8035,35.1215 L42.9275,35.1215 L42.9275,33.0635 L43.7105,32.5455 Z M37.4415,35.0205 C38.692,35.0205 39.6905,35.8285 39.6905,37.2685 L39.6905,41.487 L39.096,41.487 L38.9065,40.5015 C38.5535,41.12 37.909,41.588 36.8995,41.588 C35.8385,41.588 34.9165,41.057 34.9165,39.655 C34.9165,38.241 36.0655,37.571 37.846,37.571 L38.9065,37.571 L38.9065,37.294 C38.9065,36.1825 38.301,35.753 37.4415,35.753 C36.571,35.753 36.1155,36.2965 35.9265,36.94 L35.1685,36.763 C35.333,35.69 36.2925,35.0205 37.4415,35.0205 Z M85.849,32.5455 L85.849,35.1215 L87.5665,35.1215 L87.5665,35.8545 L85.849,35.8545 L85.849,39.8065 C85.849,40.527 86.2155,40.8555 86.7585,40.8555 C87.011,40.8555 87.314,40.804 87.554,40.653 L87.768,41.361 C87.4655,41.5245 87.049,41.588 86.657,41.588 C85.7355,41.588 85.066,41.032 85.066,39.6805 L85.066,35.8545 L83.942,35.8545 L83.942,35.1215 L85.066,35.1215 L85.066,33.0635 L85.849,32.5455 Z M92.4265,35.0205 C94.069,35.0205 95.2175,36.1825 95.2175,37.9505 L95.2175,38.3035 L90.4195,38.3035 C90.4195,39.782 91.152,40.8555 92.4265,40.8555 C93.3995,40.8555 93.9175,40.451 94.3845,39.4915 L95.0785,39.832 C94.423,41.133 93.601,41.588 92.4265,41.588 C90.7345,41.588 89.5975,40.1985 89.5975,38.3035 C89.5975,36.41 90.7345,35.0205 92.4265,35.0205 Z M54.8,35.0205 C56.669,35.0205 57.781,36.637 57.781,38.3035 C57.781,39.971 56.669,41.588 54.8,41.588 C52.9315,41.588 51.8195,39.971 51.8195,38.3035 C51.8195,36.637 52.9315,35.0205 54.8,35.0205 Z M7.706,35.0205 C8.9185,35.0205 9.664,35.7655 9.664,37.1165 L9.664,41.487 L8.881,41.487 L8.881,37.218 C8.881,36.2965 8.4765,35.753 7.58,35.753 C6.418,35.753 5.522,36.8895 5.522,38.696 L5.522,41.487 L4.739,41.487 L4.739,35.1215 L5.522,35.1215 L5.522,36.4475 C5.964,35.6015 6.7845,35.0205 7.706,35.0205 Z M15.595,35.0205 C16.8075,35.0205 17.553,35.7655 17.553,37.1165 L17.553,41.487 L16.7695,41.487 L16.7695,37.218 C16.7695,36.2965 16.3655,35.753 15.469,35.753 C14.307,35.753 13.4105,36.8895 13.4105,38.696 L13.4105,41.487 L12.628,41.487 L12.628,35.1215 L13.4105,35.1215 L13.4105,36.4475 C13.8525,35.6015 14.6735,35.0205 15.595,35.0205 Z M79.7005,35.0205 C80.913,35.0205 81.6585,35.7655 81.6585,37.1165 L81.6585,41.487 L80.875,41.487 L80.875,37.218 C80.875,36.2965 80.471,35.753 79.5745,35.753 C78.4125,35.753 77.516,36.8895 77.516,38.696 L77.516,41.487 L76.7335,41.487 L76.7335,35.1215 L77.516,35.1215 L77.516,36.4475 C77.9585,35.6015 78.779,35.0205 79.7005,35.0205 Z M134.455,35.0205 C134.821,35.0205 135.0995,35.096 135.4145,35.2355 L135.2375,35.9805 C134.9605,35.8285 134.6575,35.753 134.3415,35.753 C133.3695,35.753 132.586,36.852 132.586,39.024 L132.586,41.487 L131.803,41.487 L131.803,35.1215 L132.586,35.1215 L132.586,36.2585 C132.9775,35.4625 133.5965,35.0205 134.455,35.0205 Z M107.7925,35.0205 C108.1585,35.0205 108.437,35.096 108.752,35.2355 L108.576,35.9805 C108.298,35.8285 107.9945,35.753 107.6785,35.753 C106.7065,35.753 105.9235,36.852 105.9235,39.024 L105.9235,41.487 L105.1405,41.487 L105.1405,35.1215 L105.9235,35.1215 L105.9235,36.2585 C106.315,35.4625 106.934,35.0205 107.7925,35.0205 Z M1.6635,35.1215 L1.6635,41.487 L0.881,41.487 L0.881,35.1215 L1.6635,35.1215 Z M28.8065,35.1215 L30.562,40.438 L32.3175,35.1215 L33.138,35.1215 L30.9915,41.487 L30.1325,41.487 L27.9855,35.1215 L28.8065,35.1215 Z M48.9995,35.1215 L48.9995,41.487 L48.217,41.487 L48.217,35.1215 L48.9995,35.1215 Z M63.321,35.0205 C64.533,35.0205 65.279,35.7655 65.279,37.1165 L65.279,41.487 L64.4955,41.487 L64.4955,37.218 C64.4955,36.2965 64.0915,35.753 63.195,35.753 C62.0325,35.753 61.1365,36.8895 61.1365,38.696 L61.1365,41.487 L60.3535,41.487 L60.3535,35.1215 L61.1365,35.1215 L61.1365,36.4475 C61.5785,35.6015 62.399,35.0205 63.321,35.0205 Z M73.658,35.1215 L73.658,41.487 L72.8755,41.487 L72.8755,35.1215 L73.658,35.1215 Z M126.0425,35.753 C124.6285,35.753 123.8835,37.041 123.8835,38.3035 C123.8835,39.5675 124.6285,40.8555 126.0425,40.8555 C127.457,40.8555 128.202,39.5675 128.202,38.3035 C128.202,37.041 127.457,35.753 126.0425,35.753 Z M114.5475,38.3035 L113.5115,38.3035 C112.047,38.3035 111.3775,38.809 111.3775,39.655 C111.3775,40.451 111.8575,40.8555 112.615,40.8555 C113.424,40.8555 114.5475,40.2615 114.5475,38.544 L114.5475,38.3035 Z M54.8,35.753 C53.3855,35.753 52.641,37.041 52.641,38.3035 C52.641,39.5675 53.3855,40.8555 54.8,40.8555 C56.2145,40.8555 56.9595,39.5675 56.9595,38.3035 C56.9595,37.041 56.2145,35.753 54.8,35.753 Z M38.9065,38.3035 L37.8715,38.3035 C36.406,38.3035 35.7375,38.809 35.7375,39.655 C35.7375,40.451 36.217,40.8555 36.975,40.8555 C37.7835,40.8555 38.9065,40.2615 38.9065,38.544 L38.9065,38.3035 Z M23.2525,35.753 C21.8385,35.753 21.0935,37.041 21.0935,38.3035 C21.0935,39.5675 21.8385,40.8555 23.2525,40.8555 C24.667,40.8555 25.412,39.5675 25.412,38.3035 C25.412,37.041 24.667,35.753 23.2525,35.753 Z M100.077,35.703 C99.344,35.703 98.7005,36.233 98.7005,37.1545 C98.7005,38.0765 99.344,38.6075 100.077,38.6075 C100.8095,38.6075 101.454,38.0765 101.454,37.1545 C101.454,36.233 100.8095,35.703 100.077,35.703 Z M92.4265,35.753 C91.379,35.753 90.671,36.5355 90.469,37.571 L94.4095,37.571 C94.2585,36.46 93.589,35.753 92.4265,35.753 Z M48.6075,32.646 C48.974,32.646 49.252,32.9245 49.252,33.2905 C49.252,33.6565 48.974,33.934 48.6075,33.934 C48.242,33.934 47.964,33.6565 47.964,33.2905 C47.964,32.9245 48.242,32.646 48.6075,32.646 Z M73.2665,32.646 C73.633,32.646 73.9105,32.9245 73.9105,33.2905 C73.9105,33.6565 73.633,33.934 73.2665,33.934 C72.9,33.934 72.6225,33.6565 72.6225,33.2905 C72.6225,32.9245 72.9,32.646 73.2665,32.646 Z M1.272,32.646 C1.638,32.646 1.9165,32.9245 1.9165,33.2905 C1.9165,33.6565 1.638,33.934 1.272,33.934 C0.9055,33.934 0.6285,33.6565 0.6285,33.2905 C0.6285,32.9245 0.9055,32.646 1.272,32.646 Z" id="дескриптор" fill="#1A1919"></path>
            </g>
        </g>
    </g>
</svg>