<svg xmlns="http://www.w3.org/2000/svg" viewBox="0 0 24.4 15.2" style="enable-background:new 0 0 24.4 15.2" xml:space="preserve"><g style="enable-background:new"><path d="M0 15.1V.1h3.4c2.5 0 3.8 1.5 3.8 4.4 0 .9-.1 1.6-.4 2.2-.3.6-.8 1.1-1.4 1.5L7.7 15H5.4l-2-6.4H2.1V15H0zm2.1-13v4.7h1.2c.4 0 .7-.1.9-.2.2-.1.4-.3.5-.5.1-.2.2-.4.2-.7s.1-.6.1-1 0-.7-.1-1-.1-.5-.3-.7c-.3-.4-.8-.6-1.5-.6h-1zM15.9 4.4h-2.1v-.5c0-.5-.1-.9-.3-1.3-.2-.4-.6-.5-1.2-.5-.3 0-.5.1-.7.2-.2.1-.3.3-.4.4-.1.2-.2.4-.2.6s-.1.5-.1.7v.7c0 .2.1.4.2.5.1.2.2.3.4.4.2.1.4.2.7.3l1.6.7c.5.2.9.4 1.2.6.3.2.5.5.7.9.2.3.3.7.3 1.1.1.4.1.9.1 1.5s-.1 1.2-.2 1.8c-.1.5-.3 1-.6 1.4-.3.4-.7.7-1.2.9s-1.1.3-1.7.3c-.5 0-1-.1-1.4-.3-.4-.2-.8-.4-1.2-.8-.3-.3-.6-.7-.8-1.1s-.3-.9-.3-1.4v-.8h2.1v.7c0 .4.1.7.3 1.1.2.3.6.5 1.2.5.4 0 .6-.1.9-.2.2-.1.4-.3.5-.5.1-.2.2-.4.2-.7V9.7c0-.3-.1-.5-.2-.6-.1-.2-.2-.3-.4-.4l-.6-.3-1.5-.6c-.9-.4-1.5-.9-1.9-1.5S8.8 4.9 8.8 4c0-.6.1-1.1.2-1.6.2-.5.4-.9.7-1.3.3-.4.7-.7 1.1-.9.5-.2 1-.3 1.6-.3.5 0 1 .1 1.5.3.4.2.8.5 1.1.8.6.7 1 1.4 1 2.3v1.1zM24.4 4.4h-2.1v-.5c0-.5-.1-.9-.3-1.3-.2-.4-.6-.5-1.2-.5-.3 0-.5.1-.7.2-.2.1-.3.3-.4.4-.1.2-.2.4-.2.6 0 .2-.1.5-.1.7v.7c0 .2.1.4.2.5.1.2.2.3.4.4s.4.2.7.3l1.6.7c.5.2.9.4 1.2.6.3.2.5.5.7.9.2.3.3.7.3 1.1.1.4.1.9.1 1.5s-.1 1.2-.2 1.8c-.1.5-.3 1-.6 1.4-.3.4-.7.7-1.2.9-.5.2-1.1.3-1.7.3-.5 0-1-.1-1.4-.3-.4-.2-.8-.4-1.2-.8-.3-.3-.6-.7-.8-1.1-.2-.4-.3-.9-.3-1.4v-.8h2.1v.7c0 .4.1.7.3 1.1.2.3.6.5 1.2.5.4 0 .6-.1.8-.2.2-.1.4-.3.5-.5.1-.2.2-.4.2-.7V9.7c0-.3-.1-.5-.2-.6-.1-.2-.2-.3-.4-.4l-.6-.3-1.5-.6c-.9-.4-1.5-.9-1.9-1.5-.3-.6-.5-1.4-.5-2.3 0-.6.1-1.1.2-1.6s.4-.9.7-1.3c.3-.4.7-.7 1.1-.9.5-.2 1-.3 1.6-.3.5 0 1 .1 1.5.3.4.2.8.5 1.1.8.6.7 1 1.4 1 2.3v1.1z"/></g></svg>