<?xml version="1.0" encoding="UTF-8"?>
<svg width="18px" height="18px" viewBox="0 0 18 18" version="1.1" xmlns="http://www.w3.org/2000/svg" xmlns:xlink="http://www.w3.org/1999/xlink">
    <title>Shape</title>
    <g id="Page-1" stroke="none" stroke-width="1" fill="none" fill-rule="evenodd">
        <g id="header" transform="translate(-1206.000000, -34.000000)" fill="currentColor">
            <path d="M1218.502,40.491 L1217.708,40.491 L1217.432,40.765 C1218.407,41.902 1219,43.376 1219,44.991 C1219,48.581 1216.09,51.491 1212.5,51.491 C1208.91,51.491 1206,48.581 1206,44.991 C1206,41.401 1208.91,38.491 1212.5,38.491 C1214.115,38.491 1215.588,39.083 1216.725,40.057 L1217.001,39.783 L1217.001,38.991 L1221.999,34 L1223.49,35.491 L1218.502,40.491 L1218.502,40.491 Z M1212.5,40.491 C1210.014,40.491 1208,42.505 1208,44.991 C1208,47.476 1210.014,49.491 1212.5,49.491 C1214.985,49.491 1217,47.476 1217,44.991 C1217,42.505 1214.985,40.491 1212.5,40.491 L1212.5,40.491 Z" id="Shape" transform="translate(1214.745000, 42.745500) scale(1, -1) translate(-1214.745000, -42.745500) "></path>
        </g>
    </g>
</svg>