<?xml version="1.0" encoding="UTF-8"?>
<svg width="20px" height="14px" viewBox="0 0 20 14" version="1.1" xmlns="http://www.w3.org/2000/svg" xmlns:xlink="http://www.w3.org/1999/xlink">
    <title>youtube-brands</title>
    <g id="Page-1" stroke="none" stroke-width="1" fill="none" fill-rule="evenodd">
        <g id="главная" transform="translate(-1162.000000, -36.000000)" fill="currentColor" fill-rule="nonzero">
            <g id="header">
                <path d="M1181.58208,38.190526 C1181.35206,37.3282865 1180.67435,36.6492135 1179.81387,36.4187604 C1178.25418,36 1172,36 1172,36 C1172,36 1165.74586,36 1164.18613,36.4187604 C1163.32565,36.64925 1162.64794,37.3282865 1162.41792,38.190526 C1162,39.7533854 1162,43.0141458 1162,43.0141458 C1162,43.0141458 1162,46.2749063 1162.41792,47.8377656 C1162.64794,48.7000052 1163.32565,49.3507865 1164.18613,49.5812396 C1165.74586,50 1172,50 1172,50 C1172,50 1178.25414,50 1179.81387,49.5812396 C1180.67435,49.3507865 1181.35206,48.7000052 1181.58208,47.8377656 C1182,46.2749063 1182,43.0141458 1182,43.0141458 C1182,43.0141458 1182,39.7533854 1181.58208,38.190526 Z M1169.95453,45.9746719 L1169.95453,40.0536198 L1175.18178,43.0142187 L1169.95453,45.9746719 Z" id="youtube-brands"></path>
            </g>
        </g>
    </g>
</svg>