<svg xmlns="http://www.w3.org/2000/svg" xmlns:xlink="http://www.w3.org/1999/xlink"><defs><style>
    .sprite-symbol-usage {display: none;}
    .sprite-symbol-usage:target {display: inline;}
  </style><symbol viewBox="0 0 7 15" id="digest"><path d="M6.978 6.958a.213.213 0 0 0-.184-.114l-2.975-.072L6.311.275a.2.2 0 0 0-.1-.254.215.215 0 0 0-.277.079L.033 9.169a.2.2 0 0 0 0 .215.213.213 0 0 0 .2.1l2.933-.227-2.39 5.46a.2.2 0 0 0 .091.258.218.218 0 0 0 .1.027.213.213 0 0 0 .171-.085l5.821-7.748a.2.2 0 0 0 .019-.211" /></symbol><symbol viewBox="0 0 10 19" id="fb"><path d="m9.345 10.688.519-3.439H6.621V5.018A1.7 1.7 0 0 1 8.526 3.16H10V.232A17.673 17.673 0 0 0 7.383 0c-2.67 0-4.415 1.647-4.415 4.628v2.621H0v3.439h2.968V19h3.653v-8.312Z" fill="currentColor" /></symbol><symbol viewBox="0 0 44 43" id="play"><g fill="none" fill-rule="evenodd"><ellipse fill="#FFF" cx="22" cy="21.5" rx="22" ry="21.5" /><path fill="#19202C" d="m19.646 14.782 7.072 7.072-6.364 6.364z" /></g></symbol><symbol viewBox="0 0 24.4 15.2" id="rss"><path d="M0 15.1V.1h3.4c2.5 0 3.8 1.5 3.8 4.4 0 .9-.1 1.6-.4 2.2-.3.6-.8 1.1-1.4 1.5L7.7 15H5.4l-2-6.4H2.1V15H0zm2.1-13v4.7h1.2c.4 0 .7-.1.9-.2.2-.1.4-.3.5-.5.1-.2.2-.4.2-.7s.1-.6.1-1 0-.7-.1-1-.1-.5-.3-.7c-.3-.4-.8-.6-1.5-.6h-1zm13.8 2.3h-2.1v-.5c0-.5-.1-.9-.3-1.3-.2-.4-.6-.5-1.2-.5-.3 0-.5.1-.7.2-.2.1-.3.3-.4.4-.1.2-.2.4-.2.6s-.1.5-.1.7v.7c0 .2.1.4.2.5.1.2.2.3.4.4.2.1.4.2.7.3l1.6.7c.5.2.9.4 1.2.6.3.2.5.5.7.9.2.3.3.7.3 1.1.1.4.1.9.1 1.5s-.1 1.2-.2 1.8c-.1.5-.3 1-.6 1.4-.3.4-.7.7-1.2.9s-1.1.3-1.7.3c-.5 0-1-.1-1.4-.3-.4-.2-.8-.4-1.2-.8-.3-.3-.6-.7-.8-1.1s-.3-.9-.3-1.4v-.8h2.1v.7c0 .4.1.7.3 1.1.2.3.6.5 1.2.5.4 0 .6-.1.9-.2.2-.1.4-.3.5-.5.1-.2.2-.4.2-.7V9.7c0-.3-.1-.5-.2-.6-.1-.2-.2-.3-.4-.4l-.6-.3-1.5-.6c-.9-.4-1.5-.9-1.9-1.5S8.8 4.9 8.8 4c0-.6.1-1.1.2-1.6.2-.5.4-.9.7-1.3.3-.4.7-.7 1.1-.9.5-.2 1-.3 1.6-.3.5 0 1 .1 1.5.3.4.2.8.5 1.1.8.6.7 1 1.4 1 2.3v1.1zm8.5 0h-2.1v-.5c0-.5-.1-.9-.3-1.3-.2-.4-.6-.5-1.2-.5-.3 0-.5.1-.7.2-.2.1-.3.3-.4.4-.1.2-.2.4-.2.6 0 .2-.1.5-.1.7v.7c0 .2.1.4.2.5.1.2.2.3.4.4s.4.2.7.3l1.6.7c.5.2.9.4 1.2.6.3.2.5.5.7.9.2.3.3.7.3 1.1.1.4.1.9.1 1.5s-.1 1.2-.2 1.8c-.1.5-.3 1-.6 1.4-.3.4-.7.7-1.2.9-.5.2-1.1.3-1.7.3-.5 0-1-.1-1.4-.3-.4-.2-.8-.4-1.2-.8-.3-.3-.6-.7-.8-1.1-.2-.4-.3-.9-.3-1.4v-.8h2.1v.7c0 .4.1.7.3 1.1.2.3.6.5 1.2.5.4 0 .6-.1.8-.2.2-.1.4-.3.5-.5.1-.2.2-.4.2-.7V9.7c0-.3-.1-.5-.2-.6-.1-.2-.2-.3-.4-.4l-.6-.3-1.5-.6c-.9-.4-1.5-.9-1.9-1.5-.3-.6-.5-1.4-.5-2.3 0-.6.1-1.1.2-1.6s.4-.9.7-1.3c.3-.4.7-.7 1.1-.9.5-.2 1-.3 1.6-.3.5 0 1 .1 1.5.3.4.2.8.5 1.1.8.6.7 1 1.4 1 2.3v1.1z" style="enable-background:new" /></symbol><symbol viewBox="0 0 18 18" id="search"><path d="M12.502 11h-.794l-.276-.274A6.47 6.47 0 0 0 13 6.5 6.5 6.5 0 1 0 6.5 13a6.47 6.47 0 0 0 4.225-1.566l.276.274v.792l4.998 4.991L17.49 16l-4.988-5ZM6.5 11a4.5 4.5 0 1 1 0-9 4.5 4.5 0 0 1 0 9Z" fill="currentColor" fill-rule="evenodd" /></symbol><symbol viewBox="0 0 20 16" id="twitter"><path d="M17.944 3.987c.013.175.013.35.013.525A11.491 11.491 0 0 1 6.294 16 11.712 11.712 0 0 1 0 14.188a8.608 8.608 0 0 0 .99.05 8.289 8.289 0 0 0 5.089-1.725 4.1 4.1 0 0 1-3.833-2.8 5.246 5.246 0 0 0 .774.062 4.4 4.4 0 0 0 1.08-.137A4.054 4.054 0 0 1 .812 5.675v-.05a4.176 4.176 0 0 0 1.853.512A4.019 4.019 0 0 1 .838 2.775 3.961 3.961 0 0 1 1.4.737a11.711 11.711 0 0 0 8.448 4.225 4.492 4.492 0 0 1-.1-.925A4.067 4.067 0 0 1 13.845 0a4.118 4.118 0 0 1 2.995 1.275A8.145 8.145 0 0 0 19.442.3a4.038 4.038 0 0 1-1.8 2.225A8.316 8.316 0 0 0 20 1.9a8.74 8.74 0 0 1-2.056 2.087Z" fill="currentColor" /></symbol><symbol viewBox="0 0 20 14" id="yt"><path d="M19.582 2.19A2.507 2.507 0 0 0 17.814.42C16.254 0 10 0 10 0S3.746 0 2.186.419c-.86.23-1.538.91-1.768 1.772C0 3.753 0 7.014 0 7.014s0 3.26.418 4.824a2.47 2.47 0 0 0 1.768 1.743C3.746 14 10 14 10 14s6.254 0 7.814-.419a2.47 2.47 0 0 0 1.768-1.743C20 10.275 20 7.014 20 7.014s0-3.26-.418-4.823ZM7.955 9.976V4.054l5.227 2.96-5.227 2.96Z" fill="currentColor" fill-rule="nonzero" /></symbol></defs><use id="digest-usage" xlink:href="#digest" class="sprite-symbol-usage" /><use id="fb-usage" xlink:href="#fb" class="sprite-symbol-usage" /><use id="play-usage" xlink:href="#play" class="sprite-symbol-usage" /><use id="rss-usage" xlink:href="#rss" class="sprite-symbol-usage" /><use id="search-usage" xlink:href="#search" class="sprite-symbol-usage" /><use id="twitter-usage" xlink:href="#twitter" class="sprite-symbol-usage" /><use id="yt-usage" xlink:href="#yt" class="sprite-symbol-usage" /></svg>