<svg xmlns="http://www.w3.org/2000/svg" xmlns:xlink="http://www.w3.org/1999/xlink"><defs><style>
    .sprite-symbol-usage {display: none;}
    .sprite-symbol-usage:target {display: inline;}
  </style><symbol viewBox="0 0 7 15" id="digest"><path d="M6.978 6.958a.213.213 0 0 0-.184-.114l-2.975-.072L6.311.275a.2.2 0 0 0-.1-.254.215.215 0 0 0-.277.079L.033 9.169a.2.2 0 0 0 0 .215.213.213 0 0 0 .2.1l2.933-.227-2.39 5.46a.2.2 0 0 0 .091.258.218.218 0 0 0 .1.027.213.213 0 0 0 .171-.085l5.821-7.748a.2.2 0 0 0 .019-.211" /></symbol><symbol viewBox="0 0 10 19" id="fb"><path d="m9.345 10.688.519-3.439H6.621V5.018A1.7 1.7 0 0 1 8.526 3.16H10V.232A17.673 17.673 0 0 0 7.383 0c-2.67 0-4.415 1.647-4.415 4.628v2.621H0v3.439h2.968V19h3.653v-8.312Z" fill="currentColor" /></symbol><symbol viewBox="0 0 24 17" id="rss"><text transform="translate(-1113 -33)" fill="currentColor" fill-rule="evenodd" font-family="DINCondensed-Bold, DIN Condensed" font-size="21" font-style="condensed" font-weight="bold">
                <tspan x="1112.001" y="49">RSS</tspan>
            </text></symbol><symbol viewBox="0 0 18 18" id="search"><path d="M12.502 11h-.794l-.276-.274A6.47 6.47 0 0 0 13 6.5 6.5 6.5 0 1 0 6.5 13a6.47 6.47 0 0 0 4.225-1.566l.276.274v.792l4.998 4.991L17.49 16l-4.988-5ZM6.5 11a4.5 4.5 0 1 1 0-9 4.5 4.5 0 0 1 0 9Z" fill="currentColor" fill-rule="evenodd" /></symbol><symbol viewBox="0 0 20 16" id="twitter"><path d="M17.944 3.987c.013.175.013.35.013.525A11.491 11.491 0 0 1 6.294 16 11.712 11.712 0 0 1 0 14.188a8.608 8.608 0 0 0 .99.05 8.289 8.289 0 0 0 5.089-1.725 4.1 4.1 0 0 1-3.833-2.8 5.246 5.246 0 0 0 .774.062 4.4 4.4 0 0 0 1.08-.137A4.054 4.054 0 0 1 .812 5.675v-.05a4.176 4.176 0 0 0 1.853.512A4.019 4.019 0 0 1 .838 2.775 3.961 3.961 0 0 1 1.4.737a11.711 11.711 0 0 0 8.448 4.225 4.492 4.492 0 0 1-.1-.925A4.067 4.067 0 0 1 13.845 0a4.118 4.118 0 0 1 2.995 1.275A8.145 8.145 0 0 0 19.442.3a4.038 4.038 0 0 1-1.8 2.225A8.316 8.316 0 0 0 20 1.9a8.74 8.74 0 0 1-2.056 2.087Z" fill="currentColor" /></symbol><symbol viewBox="0 0 20 14" id="yt"><path d="M19.582 2.19A2.507 2.507 0 0 0 17.814.42C16.254 0 10 0 10 0S3.746 0 2.186.419c-.86.23-1.538.91-1.768 1.772C0 3.753 0 7.014 0 7.014s0 3.26.418 4.824a2.47 2.47 0 0 0 1.768 1.743C3.746 14 10 14 10 14s6.254 0 7.814-.419a2.47 2.47 0 0 0 1.768-1.743C20 10.275 20 7.014 20 7.014s0-3.26-.418-4.823ZM7.955 9.976V4.054l5.227 2.96-5.227 2.96Z" fill="currentColor" fill-rule="nonzero" /></symbol></defs><use id="digest-usage" xlink:href="#digest" class="sprite-symbol-usage" /><use id="fb-usage" xlink:href="#fb" class="sprite-symbol-usage" /><use id="rss-usage" xlink:href="#rss" class="sprite-symbol-usage" /><use id="search-usage" xlink:href="#search" class="sprite-symbol-usage" /><use id="twitter-usage" xlink:href="#twitter" class="sprite-symbol-usage" /><use id="yt-usage" xlink:href="#yt" class="sprite-symbol-usage" /></svg>