<?xml version="1.0" encoding="UTF-8"?>
<svg width="136px" height="45px" viewBox="0 0 136 45" version="1.1" xmlns="http://www.w3.org/2000/svg" xmlns:xlink="http://www.w3.org/1999/xlink">
    <title>Group 5</title>
    <g id="Page-1" stroke="none" stroke-width="1" fill="none" fill-rule="evenodd">
        <g id="главная" transform="translate(-159.000000, -3038.000000)" fill="#FFFFFF">
            <g id="footer" transform="translate(0.000000, 3013.000000)">
                <g id="Group-5" transform="translate(159.000000, 25.000000)">
                    <path d="M51.7864751,4.31311871 C56.3976955,4.31311871 60.2358789,7.58681243 61.0609184,11.9142851 C61.1679235,12.4785444 61.2254262,13.0611173 61.2254262,13.6565594 C61.2254262,14.2693251 61.1654233,14.8677369 61.0514179,15.4478351 L61.0514179,15.4478351 L46.6987319,15.4478351 C46.9162423,16.0541663 47.2412579,16.6100112 47.6517775,17.0930963 C48.6423248,18.2597271 50.1258957,19.0016786 51.7864751,19.0016786 C53.4455544,19.0016786 54.9301253,18.2597271 55.9206727,17.0930963 L55.9206727,17.0930963 L60.5658947,17.0930963 C59.1833286,20.5528966 55.7736657,23 51.7864751,23 C47.7992845,23 44.3901216,20.5528966 43.0060554,17.0930963 C42.7960454,16.5669493 42.6325376,16.0160541 42.5210323,15.4478351 C42.4070268,14.8677369 42.3470239,14.2693251 42.3470239,13.6565594 C42.3470239,13.0611173 42.4040267,12.4785444 42.5125318,11.9142851 C43.3365712,7.58681243 47.1752547,4.31311871 51.7864751,4.31311871 Z M9.43945115,4.31311871 C14.0511716,4.31311871 17.888355,7.58681243 18.7133944,11.9142851 C18.8208995,12.4785444 18.8779023,13.0611173 18.8779023,13.6565594 C18.8779023,14.2693251 18.8178994,14.8677369 18.7038939,15.4478351 L18.7038939,15.4478351 L4.35120796,15.4478351 C4.56921838,16.0541663 4.89423392,16.6100112 5.30475354,17.0930963 C6.29480085,18.2597271 7.77887178,19.0016786 9.43945115,19.0016786 C11.0985304,19.0016786 12.5831014,18.2597271 13.5731487,17.0930963 L13.5731487,17.0930963 L18.2188708,17.0930963 C16.8358047,20.5528966 13.4266417,23 9.43945115,23 C5.45226059,23 2.04259762,20.5528966 0.659031498,17.0930963 C0.448521437,16.5669493 0.285513646,16.0160541 0.17450834,15.4478351 C0.0600028678,14.8677369 -2.30926389e-14,14.2693251 -2.30926389e-14,13.6565594 C-2.30926389e-14,13.0611173 0.0565027005,12.4785444 0.165007886,11.9142851 C0.989547295,7.58681243 4.82823076,4.31311871 9.43945115,4.31311871 Z M90.5278267,4.31311871 C95.1390471,4.31311871 98.9772305,7.58681243 99.80277,11.9142851 C99.9092751,12.4785444 99.9667778,13.0611173 99.9667778,13.6565594 C99.9667778,14.2693251 99.9062749,14.8677369 99.7927695,15.4478351 L99.7927695,15.4478351 L85.4395835,15.4478351 C85.658094,16.0541663 85.9831095,16.6100112 86.3936291,17.0930963 C87.3841764,18.2597271 88.8677474,19.0016786 90.5278267,19.0016786 C92.187406,19.0016786 93.6714769,18.2597271 94.6615243,17.0930963 L94.6615243,17.0930963 L99.3072463,17.0930963 C97.9251802,20.5528966 94.5145172,23 90.5278267,23 C86.5406361,23 83.1309732,20.5528966 81.7479071,17.0930963 C81.537397,16.5669493 81.3738892,16.0160541 81.2623839,15.4478351 C81.1493785,14.8677369 81.0883755,14.2693251 81.0883755,13.6565594 C81.0883755,13.0611173 81.1458783,12.4785444 81.2538835,11.9142851 C82.0784229,7.58681243 85.9171063,4.31311871 90.5278267,4.31311871 Z M71.0993981,4.3616252 L71.0993981,8.13424292 L71.1694015,8.13424292 C71.3994125,7.5858225 71.7119274,7.07699923 72.1049462,6.60777309 C72.4969649,6.14003185 72.9474865,5.73960575 73.4560108,5.40797968 C73.963535,5.07635362 74.506561,4.81946716 75.0840886,4.63583541 C75.6611162,4.4531936 76.2621449,4.3616252 76.8866747,4.3616252 C77.2086901,4.3616252 77.5677073,4.4185461 77.960226,4.53288284 L77.960226,4.53288284 L77.960226,9.06032108 C77.728715,9.01527933 77.4517017,8.97469226 77.1281863,8.94004476 C76.8051708,8.90638719 76.4921559,8.88856848 76.1936416,8.88856848 C75.2925985,8.88856848 74.5295621,9.03755272 73.9060323,9.33502625 C73.2825025,9.63249978 72.7799785,10.0378755 72.3989602,10.5516484 C72.017942,11.0669063 71.745429,11.6672979 71.5844213,12.3528234 C71.4234136,13.0393389 71.3424097,13.7827752 71.3424097,14.5816476 L71.3424097,14.5816476 L71.3424097,22.9772316 L66.4221746,22.9772316 L66.4221746,4.3616252 L71.0993981,4.3616252 Z M26.7977808,4.43883963 L30.5814616,17.1034906 L30.651465,17.1034906 L34.4201451,4.43883963 L39.3063786,4.43883963 L33.2425888,22.9772316 L27.7683272,22.9772316 L21.6355341,4.43883963 L26.7977808,4.43883963 Z M112.458375,4.23243953 C113.429421,4.23243953 114.368966,4.32450288 115.28251,4.50615477 C116.195053,4.69028148 117.008592,4.99913919 117.724627,5.4327279 C118.440661,5.86730653 119.035189,6.44443488 119.510212,7.1646079 C119.982734,7.88478092 120.266248,8.7940303 120.358252,9.8913661 L120.358252,9.8913661 L115.680529,9.8913661 C115.612026,8.95439873 115.253008,8.31985452 114.606978,7.98822846 C113.960447,7.65709736 113.19741,7.49078936 112.319868,7.49078936 C112.043355,7.49078936 111.742841,7.50811311 111.419825,7.54276061 C111.09531,7.57641818 110.801796,7.65115779 110.535783,7.76549453 C110.26927,7.87983128 110.044759,8.04564431 109.860251,8.26243867 C109.674742,8.47972798 109.582237,8.77175691 109.582237,9.13753551 C109.582237,9.57211414 109.744245,9.9260136 110.068261,10.2002238 C110.390776,10.4739391 110.813296,10.6976629 111.332821,10.8689205 C111.852346,11.0406732 112.446874,11.194607 113.116906,11.3317121 C113.786438,11.4693122 114.468471,11.6187914 115.161004,11.7781699 C115.876538,11.9385383 116.576572,12.1330593 117.257604,12.3612378 C117.938637,12.5894164 118.545166,12.8928295 119.076691,13.2694973 C119.607717,13.64765 120.034737,14.1158862 120.358252,14.6756908 C120.681268,15.2359904 120.844276,15.9279504 120.844276,16.751076 C120.844276,17.9167169 120.606264,18.8952613 120.133742,19.6837393 C119.660219,20.4732074 119.041689,21.1072566 118.279653,21.587372 C117.517617,22.0674873 116.645075,22.4055479 115.663528,22.598584 C114.681481,22.79261 113.681933,22.8906129 112.666885,22.8906129 C111.627335,22.8906129 110.610287,22.7871654 109.617739,22.5822502 C108.624192,22.376345 107.740649,22.0328398 106.966612,21.5527245 C106.193575,21.0726091 105.557545,20.4385599 105.061021,19.6495868 C104.564498,18.8606138 104.292985,17.8711802 104.246982,16.682276 L104.246982,16.682276 L108.924706,16.682276 C108.924706,17.208423 109.034211,17.6598304 109.253722,18.0369932 C109.472732,18.4151459 109.755746,18.7235087 110.102762,18.9630714 C110.449279,19.203129 110.847298,19.3803262 111.298319,19.494663 C111.747841,19.6094947 112.216363,19.6664156 112.701386,19.6664156 C113.047903,19.6664156 113.41142,19.6273134 113.792939,19.5461393 C114.173957,19.46645 114.520473,19.3407291 114.832488,19.1694715 C115.144003,18.9977189 115.404016,18.7690454 115.612026,18.483451 C115.819535,18.1973616 115.92404,17.8370276 115.92404,17.402944 C115.92404,16.6708918 115.432517,16.1224714 114.45097,15.7566928 C113.469423,15.3909142 112.100358,15.0251356 110.345774,14.658862 C109.62874,14.4994835 108.929706,14.3109021 108.248674,14.0931178 C107.567141,13.8758285 106.961112,13.5907291 106.430087,13.2348498 C105.898561,12.8814453 105.471041,12.4359774 105.148025,11.8979513 C104.82451,11.360915 104.663002,10.7031075 104.663002,9.9260136 C104.663002,8.78314109 104.888013,7.84518378 105.339035,7.11362658 C105.789056,6.38256435 106.383585,5.80444607 107.12312,5.38125161 C107.862155,4.95855212 108.694195,4.66107859 109.617739,4.48932599 C110.541283,4.31806835 111.488829,4.23243953 112.458375,4.23243953 Z M131.8178,0.83450977 L131.8178,4.3616252 L135.420972,4.3616252 L135.420972,7.61948007 L131.8178,7.61948007 L131.8178,17.0257812 C131.8178,17.8484118 131.956307,18.3973272 132.23282,18.6720324 C132.510333,18.9457476 133.06486,19.0838426 133.896399,19.0838426 C134.173413,19.0838426 134.438925,19.0724585 134.693938,19.0491951 C134.94745,19.0269218 135.189461,18.9922743 135.420972,18.9457476 L135.420972,18.9457476 L135.420972,22.7193553 C135.004952,22.7881553 134.54293,22.833197 134.035406,22.8569553 C133.526382,22.8792287 133.030358,22.8906129 132.544835,22.8906129 C131.783298,22.8906129 131.060264,22.8391366 130.379231,22.736184 C129.697699,22.6337264 129.09767,22.4337609 128.577645,22.1362873 C128.05762,21.8393088 127.647601,21.4161143 127.348086,20.8671989 C127.047072,20.3182835 126.897565,19.5981105 126.897565,18.7061849 L126.897565,18.7061849 L126.897565,7.61948007 L123.916922,7.61948007 L123.916922,4.3616252 L126.897565,4.3616252 L126.897565,0.83450977 L131.8178,0.83450977 Z M51.7864751,8.3119351 C49.420862,8.3119351 47.412266,9.81761642 46.6822311,11.9142851 L46.6822311,11.9142851 L56.890219,11.9142851 C56.1601841,9.81761642 54.1515881,8.3119351 51.7864751,8.3119351 Z M9.43945115,8.3119351 C7.07333806,8.3119351 5.06474206,9.81761642 4.33470717,11.9142851 L4.33470717,11.9142851 L14.5431951,11.9142851 C13.8131602,9.81761642 11.8045642,8.3119351 9.43945115,8.3119351 Z M90.5278267,8.3119351 C88.1622136,8.3119351 86.1536176,9.81761642 85.4230827,11.9142851 L85.4230827,11.9142851 L95.6315706,11.9142851 C94.9025358,9.81761642 92.8934398,8.3119351 90.5278267,8.3119351 Z M134.618934,-6.88338275e-15 C134.800943,-6.88338275e-15 134.974951,0.0311827494 135.142459,0.0940432125 C135.308967,0.156903676 135.455974,0.245997245 135.58298,0.360828958 C135.710486,0.476650598 135.811491,0.616230524 135.886995,0.779568735 C135.962998,0.943896875 136,1.12703366 136,1.32848412 C136,1.53290436 135.962998,1.71752604 135.886995,1.88086425 C135.811491,2.04469743 135.710486,2.18427735 135.58298,2.30158389 C135.455974,2.41790049 135.308967,2.50699406 135.142459,2.56836963 C134.974951,2.6297452 134.800943,2.66092795 134.618934,2.66092795 C134.435425,2.66092795 134.261417,2.6297452 134.094409,2.56836963 C133.927401,2.50699406 133.780894,2.41790049 133.653888,2.30158389 C133.526382,2.18427735 133.425377,2.04469743 133.349373,1.88086425 C133.27387,1.71752604 133.236368,1.53290436 133.236368,1.32848412 C133.236368,1.12703366 133.27387,0.943896875 133.349373,0.779568735 C133.425377,0.616230524 133.526382,0.476650598 133.653888,0.360828958 C133.780894,0.245997245 133.927401,0.156903676 134.094409,0.0940432125 C134.261417,0.0311827494 134.435425,-6.88338275e-15 134.618934,-6.88338275e-15 Z M134.618934,0.284604459 C134.476427,0.284604459 134.344921,0.31133253 134.220915,0.363303779 C134.096909,0.415275028 133.989904,0.487539812 133.8979,0.580098132 C133.807895,0.672656452 133.735892,0.783033485 133.682889,0.909249376 C133.629887,1.03744512 133.603385,1.17653009 133.603385,1.32848412 C133.603385,1.48093312 133.629887,1.62051304 133.682889,1.74920375 C133.735892,1.87690454 133.807895,1.9882715 133.8979,2.08231471 C133.989904,2.175368 134.096909,2.24961264 134.220915,2.30158389 C134.344921,2.35355513 134.476427,2.37929328 134.618934,2.37929328 C134.757441,2.37929328 134.889447,2.35355513 135.012953,2.30158389 C135.136459,2.24961264 135.243964,2.175368 135.334968,2.08231471 C135.425973,1.9882715 135.497976,1.87690454 135.552479,1.74920375 C135.605981,1.62051304 135.632982,1.48093312 135.632982,1.32848412 C135.632982,1.17653009 135.605981,1.03744512 135.552479,0.909249376 C135.497976,0.783033485 135.425973,0.672656452 135.334968,0.580098132 C135.243964,0.487539812 135.136459,0.415275028 135.012953,0.363303779 C134.889447,0.31133253 134.757441,0.284604459 134.618934,0.284604459 Z M134.650936,0.580098132 C134.839945,0.580098132 134.985952,0.614250667 135.088456,0.680080916 C135.190461,0.746406129 135.240964,0.860742877 135.240964,1.02160627 C135.240964,1.09139623 135.230463,1.15029698 135.209962,1.19830851 C135.190461,1.24681501 135.16196,1.28641215 135.125958,1.3175949 C135.089957,1.34877765 135.048455,1.37253594 135.000452,1.38886976 C134.95245,1.40569855 134.899947,1.41658776 134.845445,1.42104244 L134.845445,1.42104244 L135.248464,2.07291039 L134.935449,2.07291039 L134.568432,1.4353964 L134.380423,1.4353964 L134.380423,2.07291039 L134.082408,2.07291039 L134.082408,0.580098132 Z M134.632935,0.812236378 L134.380423,0.812236378 L134.380423,1.20424808 L134.647435,1.20424808 C134.733439,1.20424808 134.803943,1.19187398 134.859946,1.16811569 C134.914948,1.14485237 134.942449,1.08743652 134.942449,0.997353017 C134.942449,0.956765946 134.932449,0.925088233 134.913448,0.901329947 C134.893947,0.877571662 134.868946,0.85876302 134.839445,0.845893949 C134.808943,0.832529913 134.775941,0.82411552 134.73894,0.819660842 C134.702438,0.814711199 134.666436,0.812236378 134.632935,0.812236378 L134.632935,0.812236378 Z" id="лого"></path>
                    <path d="M102.845444,35.1906442 L103.212025,35.8826441 L102.327122,36.3907992 C102.618083,36.7564229 102.769824,37.1995094 102.769824,37.7603391 C102.769824,39.1035418 101.82082,39.9649266 100.606395,39.9649266 C100.151173,39.9649266 99.7590514,39.8600938 99.41751,39.6524939 C99.0253884,39.8213625 98.8991883,40.069243 98.8991883,40.3827086 C98.8991883,40.8526488 99.2782893,41.0091234 99.6829307,41.0091234 L101.328039,41.0091234 C102.428283,41.0091234 103.237565,41.5172785 103.237565,42.7298274 C103.237565,44.3606748 102.099261,45 100.618914,45 C98.9873281,45 97.9882443,44.1918062 97.9882443,42.8351767 C97.9882443,42.195335 98.2912246,41.7264277 98.6457867,41.4516934 C98.3292849,41.2559711 98.1394841,40.917201 98.1394841,40.3827086 C98.1394841,39.8213625 98.4810255,39.4170074 98.9237272,39.2083746 C98.632766,38.8437836 98.4429651,38.3345957 98.4429651,37.7603391 C98.4429651,36.4300469 99.3919695,35.556268 100.606395,35.556268 C101.011036,35.556268 101.390638,35.6605844 101.706639,35.8563068 L102.845444,35.1906442 Z M99.3163496,41.6737531 C98.8731471,41.9737918 98.7474478,42.4039678 98.7474478,42.8609975 C98.7474478,43.7084391 99.3539092,44.2697853 100.618914,44.2697853 C101.88392,44.2697853 102.478362,43.6557645 102.478362,42.8351767 C102.478362,41.9996127 101.998101,41.7130008 101.238396,41.7130008 L99.9358316,41.7130008 C99.7084712,41.7130008 99.5056497,41.699574 99.3163496,41.6737531 Z M126.61312,35.556268 C128.485087,35.556268 129.598853,37.2258467 129.598853,38.9470672 C129.598853,40.6693205 128.485087,42.3394156 126.61312,42.3394156 C124.741653,42.3394156 123.627888,40.6693205 123.627888,38.9470672 C123.627888,37.2258467 124.741653,35.556268 126.61312,35.556268 Z M113.632043,35.556268 C114.884528,35.556268 115.884113,36.3907992 115.884113,37.8780824 L115.884113,42.2350992 L115.289169,42.2350992 L115.099869,41.2172397 C114.745808,41.8560485 114.100786,42.3394156 113.088681,42.3394156 C112.026498,42.3394156 111.103034,41.7909799 111.103034,40.3429444 C111.103034,38.882515 112.253858,38.1905151 114.037185,38.1905151 L115.099869,38.1905151 L115.099869,37.9044197 C115.099869,36.7564229 114.492907,36.3128201 113.632043,36.3128201 C112.760161,36.3128201 112.304438,36.8741662 112.114637,37.5387959 L111.354933,37.355984 C111.520195,36.2477514 112.481218,35.556268 113.632043,35.556268 Z M23.6599202,35.556268 C25.5318876,35.556268 26.6446515,37.2258467 26.6446515,38.9470672 C26.6446515,40.6693205 25.5318876,42.3394156 23.6599202,42.3394156 C21.787452,42.3394156 20.674688,40.6693205 20.674688,38.9470672 C20.674688,37.2258467 21.787452,35.556268 23.6599202,35.556268 Z M37.8714481,35.556268 C39.1239335,35.556268 40.1240188,36.3907992 40.1240188,37.8780824 L40.1240188,42.2350992 L39.5285749,42.2350992 L39.3387741,41.2172397 C38.9852136,41.8560485 38.3396903,42.3394156 37.3285875,42.3394156 C36.265903,42.3394156 35.3424391,41.7909799 35.3424391,40.3429444 C35.3424391,38.882515 36.4932634,38.1905151 38.2765903,38.1905151 L39.3387741,38.1905151 L39.3387741,37.9044197 C39.3387741,36.7564229 38.7323127,36.3128201 37.8714481,36.3128201 C36.999566,36.3128201 36.5433428,36.8741662 36.3540427,37.5387959 L35.5948392,37.355984 C35.7596004,36.2477514 36.7206238,35.556268 37.8714481,35.556268 Z M44.1504014,33 L44.1504014,35.6605844 L45.8706283,35.6605844 L45.8706283,36.4176529 L44.1504014,36.4176529 L44.1504014,40.499419 C44.1504014,41.2435771 44.5174833,41.5828635 45.0613454,41.5828635 C45.3142463,41.5828635 45.6177274,41.5296725 45.8586092,41.3737143 L46.072949,42.1049619 C45.7694679,42.2738305 45.3523066,42.3394156 44.9596842,42.3394156 C44.0367212,42.3394156 43.3661582,41.765159 43.3661582,40.3692817 L43.3661582,36.4176529 L42.2403736,36.4176529 L42.2403736,35.6605844 L43.3661582,35.6605844 L43.3661582,33.5350088 L44.1504014,33 Z M92.9437479,35.556268 C94.5888557,35.556268 95.7391791,36.7564229 95.7391791,38.5824762 L95.7391791,38.9470672 L90.9335613,38.9470672 C90.9335613,40.4741146 91.6672243,41.5828635 92.9437479,41.5828635 C93.9182927,41.5828635 94.4371151,41.1650816 94.9048566,40.1740758 L95.5999585,40.5257563 C94.9434177,41.8694754 94.1201126,42.3394156 92.9437479,42.3394156 C91.2490615,42.3394156 90.1102563,40.9042906 90.1102563,38.9470672 C90.1102563,36.991393 91.2490615,35.556268 92.9437479,35.556268 Z M55.2575082,35.556268 C57.1294756,35.556268 58.2432411,37.2258467 58.2432411,38.9470672 C58.2432411,40.6693205 57.1294756,42.3394156 55.2575082,42.3394156 C53.3860416,42.3394156 52.2722761,40.6693205 52.2722761,38.9470672 C52.2722761,37.2258467 53.3860416,35.556268 55.2575082,35.556268 Z M86.3558048,33 L86.3558048,35.6605844 L88.0760316,35.6605844 L88.0760316,36.4176529 L86.3558048,36.4176529 L86.3558048,40.499419 C86.3558048,41.2435771 86.7228866,41.5828635 87.2667488,41.5828635 C87.5196497,41.5828635 87.8231307,41.5296725 88.0635118,41.3737143 L88.2778516,42.1049619 C87.9748713,42.2738305 87.55771,42.3394156 87.1650876,42.3394156 C86.2421246,42.3394156 85.5715616,41.765159 85.5715616,40.3692817 L85.5715616,36.4176529 L84.445777,36.4176529 L84.445777,35.6605844 L85.5715616,35.6605844 L85.5715616,33.5350088 L86.3558048,33 Z M119.910996,33 L119.910996,35.6605844 L121.631724,35.6605844 L121.631724,36.4176529 L119.910996,36.4176529 L119.910996,40.499419 C119.910996,41.2435771 120.277577,41.5828635 120.821439,41.5828635 C121.074841,41.5828635 121.378322,41.5296725 121.618703,41.3737143 L121.833544,42.1049619 C121.529562,42.2738305 121.1124,42.3394156 120.720279,42.3394156 C119.797316,42.3394156 119.127254,41.765159 119.127254,40.3692817 L119.127254,36.4176529 L118.000968,36.4176529 L118.000968,35.6605844 L119.127254,35.6605844 L119.127254,33.5350088 L119.910996,33 Z M8.08873696,35.556268 C9.30316205,35.556268 10.0498457,36.3257305 10.0498457,37.7210914 L10.0498457,42.2350992 L9.26560251,42.2350992 L9.26560251,37.8259242 C9.26560251,36.8741662 8.86046029,36.3128201 7.96253691,36.3128201 C6.798692,36.3128201 5.90126942,37.4866377 5.90126942,39.3524551 L5.90126942,42.2350992 L5.11702625,42.2350992 L5.11702625,35.6605844 L5.90126942,35.6605844 L5.90126942,37.0301244 C6.34397118,36.1563455 7.16577389,35.556268 8.08873696,35.556268 Z M80.1975428,35.556268 C81.4119679,35.556268 82.1586515,36.3257305 82.1586515,37.7210914 L82.1586515,42.2350992 L81.3739075,42.2350992 L81.3739075,37.8259242 C81.3739075,36.8741662 80.9692661,36.3128201 80.0713427,36.3128201 C78.9074978,36.3128201 78.0095744,37.4866377 78.0095744,39.3524551 L78.0095744,42.2350992 L77.2258321,42.2350992 L77.2258321,35.6605844 L78.0095744,35.6605844 L78.0095744,37.0301244 C78.452777,36.1563455 79.2745797,35.556268 80.1975428,35.556268 Z M63.792037,35.556268 C65.0059613,35.556268 65.7531457,36.3257305 65.7531457,37.7210914 L65.7531457,42.2350992 L64.9684018,42.2350992 L64.9684018,37.8259242 C64.9684018,36.8741662 64.5637603,36.3128201 63.665837,36.3128201 C62.5014913,36.3128201 61.6040687,37.4866377 61.6040687,39.3524551 L61.6040687,42.2350992 L60.8198255,42.2350992 L60.8198255,35.6605844 L61.6040687,35.6605844 L61.6040687,37.0301244 C62.0467704,36.1563455 62.8685731,35.556268 63.792037,35.556268 Z M15.9902623,35.556268 C17.2046874,35.556268 17.9513711,36.3257305 17.9513711,37.7210914 L17.9513711,42.2350992 L17.1666271,42.2350992 L17.1666271,37.8259242 C17.1666271,36.8741662 16.7619857,36.3128201 15.8640623,36.3128201 C14.7002174,36.3128201 13.802294,37.4866377 13.802294,39.3524551 L13.802294,42.2350992 L13.0185516,42.2350992 L13.0185516,35.6605844 L13.802294,35.6605844 L13.802294,37.0301244 C14.2449958,36.1563455 15.0672993,35.556268 15.9902623,35.556268 Z M74.1454491,35.6605844 L74.1454491,42.2350992 L73.3617067,42.2350992 L73.3617067,35.6605844 L74.1454491,35.6605844 Z M49.4477987,35.6605844 L49.4477987,42.2350992 L48.6640564,42.2350992 L48.6640564,35.6605844 L49.4477987,35.6605844 Z M135.038977,35.556268 C135.405558,35.556268 135.6845,35.6342471 136,35.7783277 L135.822719,36.5477902 C135.545279,36.3907992 135.241798,36.3128201 134.925296,36.3128201 C133.951753,36.3128201 133.167009,37.4479064 133.167009,39.6912252 L133.167009,42.2350992 L132.382766,42.2350992 L132.382766,35.6605844 L133.167009,35.6605844 L133.167009,36.8349184 C133.559131,36.0127813 134.179114,35.556268 135.038977,35.556268 Z M108.334144,35.556268 C108.700726,35.556268 108.979668,35.6342471 109.295168,35.7783277 L109.118888,36.5477902 C108.840447,36.3907992 108.536465,36.3128201 108.219963,36.3128201 C107.24642,36.3128201 106.462177,37.4479064 106.462177,39.6912252 L106.462177,42.2350992 L105.677934,42.2350992 L105.677934,35.6605844 L106.462177,35.6605844 L106.462177,36.8349184 C106.854299,36.0127813 107.474281,35.556268 108.334144,35.556268 Z M29.2227383,35.6605844 L30.9810255,41.1516547 L32.7393127,35.6605844 L33.5611154,35.6605844 L31.4112074,42.2350992 L30.5508436,42.2350992 L28.4004348,35.6605844 L29.2227383,35.6605844 Z M2.03664327,35.6605844 L2.03664327,42.2350992 L1.25290089,42.2350992 L1.25290089,35.6605844 L2.03664327,35.6605844 Z M126.61312,36.3128201 C125.196875,36.3128201 124.450692,37.6431123 124.450692,38.9470672 C124.450692,40.2525713 125.196875,41.5828635 126.61312,41.5828635 C128.029866,41.5828635 128.776049,40.2525713 128.776049,38.9470672 C128.776049,37.6431123 128.029866,36.3128201 126.61312,36.3128201 Z M115.099869,38.9470672 L114.062225,38.9470672 C112.595399,38.9470672 111.924836,39.4691656 111.924836,40.3429444 C111.924836,41.1650816 112.405599,41.5828635 113.164301,41.5828635 C113.974586,41.5828635 115.099869,40.9693592 115.099869,39.1954641 L115.099869,38.9470672 Z M55.2575082,36.3128201 C53.8407624,36.3128201 53.0950803,37.6431123 53.0950803,38.9470672 C53.0950803,40.2525713 53.8407624,41.5828635 55.2575082,41.5828635 C56.674254,41.5828635 57.4204368,40.2525713 57.4204368,38.9470672 C57.4204368,37.6431123 56.674254,36.3128201 55.2575082,36.3128201 Z M39.3387741,38.9470672 L38.3021308,38.9470672 C36.834304,38.9470672 36.1647426,39.4691656 36.1647426,40.3429444 C36.1647426,41.1650816 36.6450039,41.5828635 37.4042074,41.5828635 C38.2139911,41.5828635 39.3387741,40.9693592 39.3387741,39.1954641 L39.3387741,38.9470672 Z M23.6599202,36.3128201 C22.2436752,36.3128201 21.4974923,37.6431123 21.4974923,38.9470672 C21.4974923,40.2525713 22.2436752,41.5828635 23.6599202,41.5828635 C25.076666,41.5828635 25.8228488,40.2525713 25.8228488,38.9470672 C25.8228488,37.6431123 25.076666,36.3128201 23.6599202,36.3128201 Z M100.606395,36.2611783 C99.8722308,36.2611783 99.2277091,36.8085811 99.2277091,37.7603391 C99.2277091,38.7126135 99.8722308,39.2610492 100.606395,39.2610492 C101.340058,39.2610492 101.985581,38.7126135 101.985581,37.7603391 C101.985581,36.8085811 101.340058,36.2611783 100.606395,36.2611783 Z M92.9437479,36.3128201 C91.8945847,36.3128201 91.1854607,37.1210139 90.9831399,38.1905151 L94.9298963,38.1905151 C94.7786565,37.0430348 94.1080936,36.3128201 92.9437479,36.3128201 Z M49.0551764,33.1038 C49.4222582,33.1038 49.7006996,33.3914447 49.7006996,33.7694625 C49.7006996,34.1474803 49.4222582,34.4340922 49.0551764,34.4340922 C48.689096,34.4340922 48.4106547,34.1474803 48.4106547,33.7694625 C48.4106547,33.3914447 48.689096,33.1038 49.0551764,33.1038 Z M73.7533275,33.1038 C74.1204094,33.1038 74.39835,33.3914447 74.39835,33.7694625 C74.39835,34.1474803 74.1204094,34.4340922 73.7533275,34.4340922 C73.3862456,34.4340922 73.108305,34.1474803 73.108305,33.7694625 C73.108305,33.3914447 73.3862456,33.1038 73.7533275,33.1038 Z M1.64452169,33.1038 C2.01110279,33.1038 2.29004496,33.3914447 2.29004496,33.7694625 C2.29004496,34.1474803 2.01110279,34.4340922 1.64452169,34.4340922 C1.27743979,34.4340922 1,34.1474803 1,33.7694625 C1,33.3914447 1.27743979,33.1038 1.64452169,33.1038 Z" id="дескриптор"></path>
                </g>
            </g>
        </g>
    </g>
</svg>